<svg xmlns="http://www.w3.org/2000/svg" width="64" height="64" viewBox="0 0 64 64" fill="none">
  <defs>
    <linearGradient id="badge" x1="13" y1="8" x2="51" y2="56" gradientUnits="userSpaceOnUse">
      <stop stop-color="#16100A"/>
      <stop offset=".58" stop-color="#070707"/>
      <stop offset="1" stop-color="#190A00"/>
    </linearGradient>
    <linearGradient id="orange" x1="13" y1="13" x2="36" y2="52" gradientUnits="userSpaceOnUse">
      <stop stop-color="#FF8A00"/>
      <stop offset=".55" stop-color="#FF6A00"/>
      <stop offset="1" stop-color="#C84600"/>
    </linearGradient>
    <linearGradient id="white" x1="37" y1="20" x2="53" y2="48" gradientUnits="userSpaceOnUse">
      <stop stop-color="#FFF8EA"/>
      <stop offset="1" stop-color="#F2EEE6"/>
    </linearGradient>
    <filter id="glow" x="-35%" y="-35%" width="170%" height="170%" color-interpolation-filters="sRGB">
      <feGaussianBlur stdDeviation="2.6" result="blur"/>
      <feMerge>
        <feMergeNode in="blur"/>
        <feMergeNode in="SourceGraphic"/>
      </feMerge>
    </filter>
  </defs>

  <circle cx="32" cy="32" r="29" fill="url(#badge)"/>
  <circle cx="32" cy="32" r="28.25" stroke="#FF7A00" stroke-opacity=".32" stroke-width="1.5"/>
  <path d="M11 17H48.8L43.8 24H34V48L27.6 55V24H8L11 17Z" fill="url(#orange)" filter="url(#glow)"/>
  <path d="M36 28H55L50.1 34.7H43V39.6H50.4L45.8 46H36V28Z" fill="url(#white)" filter="url(#glow)"/>
  <path d="M18.4 37.4L23.2 29.6L28.4 27.1L25.4 33.1L31 31.4L26.9 36.4L31.6 38.2L24.8 39.3L27.9 44.6L21.5 40.4L18.4 37.4Z" fill="#FF7A00" opacity=".92"/>
</svg>
